<?xml version="1.0" encoding="UTF-8" standalone="no" ?>
<!DOCTYPE svg PUBLIC "-//W3C//DTD SVG 1.1//EN" "http://www.w3.org/Graphics/SVG/1.1/DTD/svg11.dtd">
<svg xmlns="http://www.w3.org/2000/svg" xmlns:xlink="http://www.w3.org/1999/xlink" version="1.1" width="512" height="512" viewBox="379 183 520 520" xml:space="preserve">
<desc>Created with Fabric.js 5.3.0</desc>
<defs>
</defs>
<g transform="matrix(1 0 0 1 640 512)" id="background-logo"  >
<rect style="stroke: none; stroke-width: 0; stroke-dasharray: none; stroke-linecap: butt; stroke-dashoffset: 0; stroke-linejoin: miter; stroke-miterlimit: 4; fill: rgb(255,255,255); fill-opacity: 0; fill-rule: nonzero; opacity: 1;"  paint-order="stroke"  x="-640" y="-512" rx="0" ry="0" width="1280" height="1024" />
</g>
<g transform="matrix(1.4884941236416092 0 0 1.4884941236416092 639.263187396743 442.9368172306297)" id="logo-logo"  >
<g style=""  paint-order="stroke"   >
		<g transform="matrix(0.22825986109613516 0 0 0.22825986109613516 0.05817746992222794 21.57959022378902)"  >
<linearGradient id="SVGID_167_476070" gradientUnits="userSpaceOnUse" gradientTransform="matrix(1 0 0 1 -261.82000000000005 -1.599630774960076)"  x1="0" y1="234.03981538748005" x2="468.4201609262272" y2="234.03981538748005">
<stop offset="0%" style="stop-color:rgb(148,86,198);stop-opacity: 1"/>
<stop offset="20%" style="stop-color:rgb(136,74,188);stop-opacity: 1"/>
<stop offset="40%" style="stop-color:rgb(124,62,176);stop-opacity: 1"/>
<stop offset="60%" style="stop-color:rgb(108,48,160);stop-opacity: 1"/>
<stop offset="80%" style="stop-color:rgb(92,36,144);stop-opacity: 1"/>
<stop offset="100%" style="stop-color:rgb(78,26,130);stop-opacity: 1"/>
</linearGradient>
<path style="stroke: none; stroke-width: 1; stroke-dasharray: none; stroke-linecap: butt; stroke-dashoffset: 0; stroke-linejoin: miter; stroke-miterlimit: 4; fill: url(#SVGID_167_476070); fill-rule: nonzero; opacity: 1;"  paint-order="stroke"  transform=" translate(27.60991953688645, -232.44018461251997)" d="M 0 0 C 4.51 0.56 8.97 1.33 13.42 2.23 L 14.92 2.53 C 29.379925805055727 5.388411211931764 43.56596961059086 9.490319161362416 57.32000000000005 14.78999999999999 C 63.10746288113288 17.06392475924247 68.81115904345718 19.545532914078354 74.41999999999985 22.22999999999997 L 75.42 22.7 C 88.1 28.799999999999997 99.86 36.31 111.33 44.44 C 115.56 47.48 119.55 50.76 123.42999999999999 54.23 L 124.72999999999999 55.379999999999995 Q 127.96 58.239999999999995 131.14999999999998 61.17999999999999 C 132.81286344659418 62.68916834384797 134.5134005467986 64.15629839108314 136.25000000000003 65.58000000000004 C 138.99280484868302 67.84727661417489 141.5385767118736 70.34286900568625 143.86 73.03999999999999 L 146.51999999999998 76.17999999999999 Q 147.85999999999999 77.72 149.24999999999997 79.21 C 156.71999999999997 87.25 163.14999999999998 96.14999999999999 169.14999999999998 105.31 C 176.71975751921985 117.14629254279993 183.26999017387186 129.60444698913489 188.72999999999993 142.54999999999973 C 193.78842429466087 154.8705772579408 197.79929032521795 167.5956267827442 200.71999999999997 180.59000000000015 Q 202.20999999999998 187.38 203.41999999999996 194.23000000000002 L 203.61999999999995 195.29000000000002 C 205.41999999999996 205.19000000000003 206.07999999999996 215.19000000000003 206.41999999999996 225.23000000000002 L 206.45999999999995 226.24 C 206.92999999999995 239.89000000000001 206.20999999999995 253.69 204.41999999999996 267.23 C 202.41440716348885 280.4879370915546 199.3103900032491 293.5562507176937 195.14000000000001 306.3 C 190.75999999999996 319.40000000000003 184.87999999999997 332.08000000000004 178.35999999999996 344.26 C 171.94644131741381 355.9179971197632 164.54605704133076 367.00519128384065 156.23999999999998 377.4 C 151.1715456460227 383.6454500444598 145.819253053321 389.6551002685593 140.1999999999999 395.40999999999997 L 137.84999999999997 397.88 C 130.57341966903797 405.5949447610063 122.63287012964156 412.6554418230064 114.11999999999992 418.98 L 113.25999999999996 419.61 L 110.84999999999997 421.40000000000003 C 99.87754602239039 429.3817691243814 88.25324729681671 436.4265959203693 76.09999999999998 442.46000000000004 C 71.92999999999996 444.52000000000004 67.69999999999996 446.41 63.419999999999966 448.23 L 62.359999999999964 448.68 C 49.73999999999997 454.01 36.65999999999997 457.6 23.33999999999996 460.72 C 13.68549181306352 462.90668349164986 3.897745238918688 464.4566884098762 -5.960000000000029 465.36 C -13.351132535927535 466.0891022388905 -20.7730129484112 466.46286600067026 -28.200000000000028 466.48 L -29.80000000000004 466.48 C -42.970193803348245 466.43838637663055 -56.11224861412887 465.2606869638518 -69.08000000000004 462.96000000000004 C -82.90355183502763 460.3994757212106 -96.48541944352593 456.67282534784437 -109.68000000000004 451.82000000000005 C -122.71067815721726 446.9493972584606 -135.30285175890825 440.9778165254589 -147.32000000000008 433.97 C -158.21476276536114 427.5487373288528 -168.52734886031797 420.1873845031211 -178.1400000000001 411.97 L -183.58000000000004 407.23 L -185.00000000000003 405.98 Q -189.34000000000003 402.16 -193.58000000000004 398.23 L -194.53000000000003 397.33000000000004 C -199.65000000000003 392.56000000000006 -204.03000000000003 387.21000000000004 -208.38000000000002 381.73 L -211.98000000000002 377.26 C -219.06000000000003 368.45 -224.98000000000002 359.03 -230.58 349.23 L -231.28 348.01 C -238.4271971112827 335.48782068104686 -244.47325099757532 322.3685194701152 -249.34999999999997 308.79999999999995 C -254.1 295.35 -257.2 281.42 -259.56 267.37 C -260.012491975089 264.612932861259 -260.3992682647917 261.84548182286886 -260.72 259.07 C -261.76000000000005 250.25 -261.82000000000005 241.41 -261.82000000000005 232.54 L -261.82000000000005 231.38 C -261.82000000000005 218.98 -261.46000000000004 206.75 -259.37000000000006 194.51 C -256.64294764325035 179.04121820745402 -252.5810994114824 163.83772696762406 -247.2300000000001 149.07000000000005 C -242.70433759704642 137.0605166527206 -237.1503862046816 125.46413380577101 -230.63000000000008 114.41000000000005 C -223.88155791271691 103.0435816750856 -216.16991959274955 92.27739854551727 -207.58000000000007 82.22999999999999 Q -204.19000000000008 78.36999999999999 -200.72000000000006 74.6 Q -198.72000000000006 72.39999999999999 -196.80000000000007 70.14 C -192.18000000000006 64.64 -187.05000000000007 59.88 -181.58000000000007 55.230000000000004 L -180.78000000000006 54.550000000000004 C -170.38000000000005 45.660000000000004 -159.32000000000005 38.21000000000001 -147.58000000000004 31.230000000000004 L -146.42000000000004 30.530000000000005 C -135.81733487594676 24.115031330409305 -124.67506626675505 18.637585770875734 -113.12000000000012 14.160000000000029 C -105.06000000000004 11.160000000000004 -96.85000000000005 8.600000000000005 -88.58000000000004 6.230000000000004 L -87.43000000000004 5.900000000000004 C -82.20826573772833 4.424410086353228 -76.91887679789443 3.199674603123544 -71.57999999999998 2.229999999999988 L -70.38000000000004 2.000000000000004 C -47.65 -2.17 -22.96 -2.55 0 0" stroke-linecap="round" />
</g>
		<g transform="matrix(0.22825986109613516 0 0 0.22825986109613516 11.059859179535465 -27.305022757096054)"  >
<linearGradient id="SVGID_168_476071" gradientUnits="userSpaceOnUse" gradientTransform="matrix(1 0 0 1 -279.6399999999999 -1.5238463960022273)"  x1="0" y1="361.9519231980011" x2="604.3362741699796" y2="361.9519231980011">
<stop offset="0%" style="stop-color:rgb(126,56,182);stop-opacity: 1"/>
<stop offset="25%" style="stop-color:rgb(114,48,170);stop-opacity: 1"/>
<stop offset="50%" style="stop-color:rgb(100,40,156);stop-opacity: 1"/>
<stop offset="75%" style="stop-color:rgb(84,30,140);stop-opacity: 1"/>
<stop offset="100%" style="stop-color:rgb(62,14,112);stop-opacity: 1"/>
</linearGradient>
<path style="stroke: none; stroke-width: 1; stroke-dasharray: none; stroke-linecap: butt; stroke-dashoffset: 0; stroke-linejoin: miter; stroke-miterlimit: 4; fill: url(#SVGID_168_476071); fill-rule: nonzero; opacity: 1;"  paint-order="stroke"  transform=" translate(-22.528137084989908, -360.4280768019989)" d="M 0 0 C 4.5 0.55 8.94 1.39 13.36 2.38 L 14.68 2.6799999999999997 C 24.714495809590403 4.8459170481846705 34.54154309286135 7.880691268793047 44.049999999999876 11.749999999999964 Q 48.69 13.73 53.269999999999996 15.879999999999999 L 56.489999999999995 17.36 C 65.07333806214643 21.284189981202527 73.29499949414088 25.955512471664147 81.05999999999996 31.31999999999995 C 90.5 37.92 99 45.49 107.36 53.39 L 108.7 54.64 C 114.05244097226242 59.607272579734115 118.9734499144042 65.02004788115175 123.41 70.81999999999995 C 133.42 84.30999999999999 141.51 99.27 149.85 113.82 C 153.53066229519953 120.25571955223847 157.28423729130472 126.64946452784218 161.10999999999964 132.99999999999943 L 161.81 134.16 L 162.52 135.34 L 164 137.79 L 164.77 139.06 Q 170.53 148.67000000000002 176.23000000000002 158.31 Q 184.59000000000003 172.45 193.04000000000002 186.51 C 196.6804135153674 192.5624783576801 200.29710792145187 198.6291915549823 203.88999999999902 204.70999999999754 L 205.70000000000002 207.76 L 207.55 210.87 L 208.16000000000003 211.92000000000002 Q 216.72000000000003 226.36 225.46000000000004 240.70000000000002 Q 234.24000000000004 255.10000000000002 242.74000000000004 269.62 L 243.79000000000005 271.42 L 244.85000000000005 273.24 L 246.98000000000005 276.89 L 247.51000000000005 277.81 Q 253.85000000000005 288.64 260.26000000000005 299.42 L 262.06000000000006 302.46000000000004 Q 268.4200000000001 313.22 274.96000000000004 323.88000000000005 C 285.93000000000006 341.74000000000007 296.31000000000006 359.45000000000005 304.05 379.00000000000006 C 310.59000000000003 395.7800000000001 316.02000000000004 412.9200000000001 319.59000000000003 430.58000000000004 L 320.53000000000003 435.38000000000005 C 322.98619003903684 447.932265892235 324.35791458103034 460.67257578470105 324.6300000000001 473.46000000000004 Q 324.71000000000004 480.51000000000005 324.6700000000001 487.56000000000006 L 324.6700000000001 490.56000000000006 C 324.63000000000005 503.4200000000001 324.57000000000005 516.2600000000001 322.3900000000001 528.98 Q 321.9000000000001 531.6800000000001 321.3600000000001 534.38 L 321.0600000000001 535.89 C 317.9600000000001 551.89 313.78000000000014 567.65 307.9400000000001 582.89 C 302.50893470746473 596.6769672606383 295.90470402706154 609.9724144358777 288.2000000000001 622.63 C 280.9400000000001 634.51 273.2300000000001 645.82 264.0600000000001 656.31 L 262.0800000000001 658.56 L 259.7800000000001 661.2099999999999 C 255.25295740996665 666.4240000177706 250.52609657710673 671.4610923661252 245.6100000000001 676.31 L 244.4100000000001 677.51 C 238.7900000000001 683.11 233.15000000000012 688.49 226.81000000000012 693.27 C 225.46823167932408 694.2948617492693 224.1381459077283 695.3349288187878 222.82000000000005 696.39 C 211.7300000000001 705.21 199.78000000000011 712.5699999999999 187.3600000000001 719.38 C 185.3829226301875 720.4252030894269 183.38240889342916 721.4254599578061 181.36000000000013 722.38 L 178.3600000000001 721.38 L 178.8600000000001 720.7 C 184.47811815048203 712.8866004965066 189.65293497753336 704.7638073737867 194.36000000000013 696.37 L 194.9700000000001 695.3 C 201.6224971311824 683.6987013617614 207.25048837606 671.5392957827571 211.79000000000013 658.9599999999998 C 216.9200000000001 644.3199999999999 220.4500000000001 629.2599999999999 222.9800000000001 613.9699999999999 C 223.56369303823865 610.3603265838569 224.0771234671525 606.7396418708669 224.52000000000007 603.1099999999999 C 225.6200000000001 594.0299999999999 225.6100000000001 584.8799999999999 225.6100000000001 575.7499999999999 L 225.6100000000001 574.5199999999999 C 225.6100000000001 561.0199999999999 225.2100000000001 547.6899999999998 222.9100000000001 534.3599999999999 C 219.9500000000001 517.9199999999998 215.9100000000001 501.6599999999999 210.1400000000001 485.9699999999999 C 205.0352137250576 472.29687512914177 198.79684434622214 459.07420802215177 191.4900000000001 446.44 C 185.2263539667362 435.9338756667406 178.0734947616488 425.984107997924 170.11000000000004 416.6999999999999 C 166.57575492648556 412.53639578469193 162.74940451810667 408.6298423983208 158.66000000000008 405.00999999999993 C 156.21209754487973 402.9373329156567 153.91619313152592 400.6915574196251 151.7900000000001 398.2899999999999 C 150.09338226630513 396.0140320067058 148.5977562225334 393.5949321640952 147.3200000000001 391.0599999999999 C 144.9500000000001 386.57999999999987 142.7200000000001 382.0399999999999 140.4700000000001 377.4999999999999 C 137.27000000000012 371.1099999999999 133.43000000000012 365.2399999999999 129.36000000000013 359.3799999999999 L 128.18000000000012 357.64999999999986 C 122.09260954496084 348.8288252203036 115.47369300505659 340.38653409372534 108.36000000000013 332.3699999999998 L 107.22000000000013 331.0699999999999 C 99.19000000000013 321.7999999999999 90.60000000000012 312.6199999999999 81.17000000000013 304.7499999999999 C 79.38882308763795 303.31051057476606 77.59205025917501 301.89042666952446 75.78 300.4899999999998 Q 73.92000000000013 299.0399999999999 72.09000000000013 297.51999999999987 C 58.220000000000134 286.1299999999999 43.150000000000134 276.22999999999985 27.540000000000134 267.3799999999999 C 10.070000000000135 257.5599999999999 -8.159999999999869 249.63999999999987 -27.059999999999867 242.9299999999999 C -44.538003387960956 236.80683650175266 -62.50181131251362 232.17036764077875 -80.76000000000005 229.06999999999988 C -98.86999999999988 226.1199999999999 -117.68999999999988 224.95999999999987 -136.0299999999999 225.13999999999987 C -155.78999999999988 225.45999999999987 -175.7299999999999 226.97999999999988 -195.1499999999999 230.66999999999987 C -215.0399999999999 234.58999999999986 -234.71999999999989 239.94999999999987 -253.6499999999999 247.18999999999988 C -261.43816447554934 250.2977405375463 -269.10689937497375 253.6968013737852 -276.64 257.3799999999998 L -279.6399999999999 256.3799999999999 C -278.77869136881657 253.3533973925731 -277.66823023954686 250.40331692264576 -276.3199999999999 247.5599999999999 Q -275.5699999999999 246.09999999999988 -274.7999999999999 244.65999999999988 L -273.9699999999999 243.04999999999987 L -271.2699999999999 237.86999999999986 L -270.31999999999994 236.06999999999985 Q -263.41999999999996 222.83999999999986 -256.24999999999994 209.77999999999986 C -251.9093599450894 201.86901513424385 -247.61595022201453 193.93220725331128 -243.36999999999983 185.9699999999997 L -239.52999999999994 178.76999999999987 L -232.87999999999994 166.34999999999988 L -231.93999999999994 164.59999999999988 L -227.26999999999995 155.88999999999987 Q -222.76999999999995 147.48999999999987 -218.29999999999995 139.08999999999986 C -211.9680739918037 127.12320716888563 -205.48757290668522 115.23562133064799 -198.86000000000035 103.42999999999978 C -193.85999999999996 94.52999999999986 -188.63999999999996 85.68999999999987 -182.45999999999995 77.55999999999986 L -181.33999999999995 76.08999999999986 C -174.14999999999995 66.72999999999986 -166.43999999999994 57.459999999999866 -157.77999999999994 49.40999999999986 C -153.87999999999994 45.87999999999986 -149.78999999999994 42.609999999999864 -145.63999999999993 39.36999999999986 L -144.00999999999993 38.08999999999986 C -136.02203707361568 31.78216006937226 -127.496009078944 26.187372468473104 -118.53000000000003 21.36999999999992 C -108.49388609355117 15.999161238964986 -98.01545793073244 11.499325389989531 -87.21000000000015 7.920000000000044 C -80.11061538770538 5.73972608096508 -72.91267268188247 3.8943564396484325 -65.6400000000001 2.3900000000000556 L -64.38999999999999 2.1099999999999994 C -43.88 -2.38 -20.84 -2.24 0 0" stroke-linecap="round" />
</g>
		<g transform="matrix(0.22825986109613516 0 0 0.22825986109613516 -55.875509552555926 33.395974335809655)"  >
<linearGradient id="SVGID_169_476072" gradientUnits="userSpaceOnUse" gradientTransform="matrix(1 0 0 1 -397.0576429818002 -0.10514113427848315)"  x1="0" y1="335.11257056713924" x2="512.1676429818002" y2="335.11257056713924">
<stop offset="0%" style="stop-color:rgb(124,54,180);stop-opacity: 1"/>
<stop offset="50%" style="stop-color:rgb(110,44,166);stop-opacity: 1"/>
<stop offset="100%" style="stop-color:rgb(84,28,140);stop-opacity: 1"/>
</linearGradient>
<path style="stroke: none; stroke-width: 1; stroke-dasharray: none; stroke-linecap: butt; stroke-dashoffset: 0; stroke-linejoin: miter; stroke-miterlimit: 4; fill: url(#SVGID_169_476072); fill-rule: nonzero; opacity: 1;"  paint-order="stroke"  transform=" translate(140.9738214909001, -335.00742943286076)" d="M 0 0 L 3.53 0.1 C 17.75 0.44999999999999996 31.76 1.76 45.730000000000004 4.55 C 59.13 7.3 72.33000000000001 11.11 85.11000000000001 16.03 C 95.33726089786957 20.19334326556204 105.34978100805442 24.865852650315016 115.10999999999993 30.03 L 115.11000000000001 32.03 L 113.76000000000002 32 C 97.04000000000002 31.67 80.36000000000001 32.55 63.81000000000002 35.02 C 49.77000000000002 37.220000000000006 36.15000000000002 40.95 22.710000000000015 45.510000000000005 C 9.080000000000014 50.21000000000001 -4.4299999999999855 55.71000000000001 -17.069999999999986 62.68000000000001 C -31.93706436225346 71.08097345685964 -45.97039892277469 80.87852461984818 -58.98000000000001 91.94 C -69.73999999999998 101.07000000000001 -80.33999999999997 111.22000000000001 -89.45999999999998 121.98000000000002 C -92.18082861376791 125.30372613114906 -94.79222452707818 128.71554991060813 -97.28999999999999 132.2100000000001 Q -98.50999999999998 133.86 -99.75999999999998 135.51000000000002 C -108.60999999999997 147.21 -115.90999999999997 159.97000000000003 -122.58999999999997 173.01000000000002 C -127.53999999999998 182.8 -132.06999999999996 192.99 -135.33999999999997 203.47000000000003 C -139.01999999999998 215.77000000000004 -142.52999999999997 228.76000000000002 -144.07999999999998 241.55 L -144.23 243.01000000000002 C -144.51999999999998 245.51000000000002 -144.85999999999999 247.96 -145.41 250.41000000000003 C -146.48 254.01000000000002 -148.25 257.35 -149.91 260.71000000000004 C -156.97093368092493 275.21441730227764 -162.77875343024053 290.29601374808107 -167.26999999999995 305.79 C -172.42 323.51 -176.82 341.67 -178.89 360.03000000000003 C -180.45 374.63000000000005 -181.33999999999997 389.23 -180.92 403.90000000000003 L -180.85 407.3 C -180.51 424.96000000000004 -178.26999999999998 442.64 -174.98999999999998 460 C -171.36999999999998 478.42 -165.54 496.49 -158.89 514.03 C -155.6 522.53 -151.86999999999998 530.8299999999999 -147.89 539.03 L -147.20999999999998 540.4499999999999 C -140.72952741991207 553.8361744267455 -133.18531496749173 566.6807311775196 -124.65 578.8599999999999 C -118.16999999999997 588.3499999999999 -111.02999999999997 597.2599999999999 -103.67999999999998 606.0799999999999 L -101.41999999999997 608.8299999999999 C -92.11999999999998 620.16 -82.02999999999997 631.0699999999999 -70.91999999999997 640.65 Q -67.71999999999997 643.31 -64.41999999999997 645.84 Q -61.67999999999997 647.99 -59.019999999999975 650.21 C -51.839999999999975 656.13 -44.659999999999975 661.9000000000001 -36.88999999999997 667.0300000000001 L -37.88999999999997 670.0300000000001 Q -82.52999999999997 670.1500000000001 -127.16999999999997 670.0300000000001 L -132.36999999999998 670.0300000000001 Q -153.22999999999996 669.9800000000001 -174.10999999999999 669.8500000000001 L -190.82 669.7600000000001 Q -197.98999999999998 669.7400000000001 -205.15 669.6800000000001 L -212.45000000000002 669.6400000000001 C -221.65 669.6400000000001 -230.61 669.2800000000001 -239.70000000000002 667.7 C -251.77475738036708 665.5602802704623 -263.6421784737284 662.3818054921444 -275.1700000000001 658.2 C -284.79933395339305 654.6770317867565 -294.1043312583579 650.3239927742577 -302.97999999999996 645.19 C -313.24244271094466 639.0340375411633 -322.9195252065999 631.9511227847447 -331.89000000000004 624.0300000000001 L -332.64000000000004 623.3800000000001 C -334.4847911366189 621.7595730563594 -336.3181697575611 620.1261993758836 -338.14000000000004 618.48 L -339.57000000000005 617.1800000000002 C -345.87000000000006 611.4100000000002 -351.27000000000004 604.7800000000002 -356.47 598.0200000000002 L -357.27000000000004 596.9700000000003 L -358.11 595.8700000000002 C -363.849424707754 588.3804990193402 -368.96649278219695 580.4339933037347 -373.4100000000001 572.1100000000002 C -378.6426006327901 562.5292068941078 -383.0485663245928 552.5196022245 -386.58000000000004 542.1900000000003 C -390.28000000000003 531.3600000000002 -392.78000000000003 520.1700000000003 -394.6 508.89000000000027 C -395.95000000000005 499.9900000000003 -396.53000000000003 491.0100000000003 -396.90000000000003 482.03000000000026 L -396.96000000000004 480.40000000000026 C -397.36 470.09000000000026 -396.49 459.6800000000003 -395.1 449.46000000000026 C -393.90000000000003 441.21000000000026 -392.03000000000003 433.09000000000026 -389.90000000000003 425.03000000000026 L -389.57000000000005 423.81000000000023 C -387.57000000000005 416.4400000000002 -384.90000000000003 409.31000000000023 -381.68000000000006 402.3900000000002 C -379.7800000000001 398.3300000000002 -377.80000000000007 394.30000000000024 -375.82000000000005 390.2700000000002 L -374.15000000000003 386.87000000000023 C -366.01000000000005 370.17000000000024 -357.71000000000004 353.55000000000024 -349.39000000000004 336.9500000000002 L -343.11000000000007 324.42000000000024 L -331.9 302 L -331.22999999999996 300.66 L -326.53 291.27000000000004 L -321.13 280.49000000000007 L -320.45 279.14000000000004 L -302.99 244.28000000000003 C -294.6587958127476 227.79120593307823 -286.5182532160982 211.20676718683285 -278.56999999999994 194.5299999999998 C -275.38 187.80000000000004 -272.02 181.15000000000003 -268.67 174.50000000000003 L -266.02000000000004 169.22000000000003 L -262.89000000000004 162.98000000000002 Q -260.41 158.04000000000002 -257.96000000000004 153.09000000000003 L -256.56000000000006 150.26000000000002 L -255.30000000000007 147.68 C -251.65000000000006 140.31 -246.90000000000006 133.71 -242.04000000000008 127.10000000000001 C -228.48073594627147 108.7353157225854 -213.3432031437906 91.59015257494785 -196.80000000000013 75.86 C -193.44000000000005 72.72000000000001 -189.83000000000007 69.88000000000001 -186.20000000000007 67.06000000000002 C -184.8731742704155 65.99210086664627 -183.5727820246871 64.89176896641457 -182.30000000000007 63.76000000000005 C -172.12000000000006 54.82000000000002 -160.76000000000008 47.41000000000002 -149.20000000000007 40.37000000000002 C -135.35000000000008 32.02000000000002 -121.08000000000007 24.50000000000002 -105.97000000000008 18.67000000000002 C -90.01068960203304 12.585532346520772 -73.5609233983991 7.875084753533862 -56.80000000000025 4.590000000000035 C -38.08986236893921 0.9994209268967711 -19.04390331266164 -0.5396803419115948 -1.7763568394002505e-13 -3.197442310920451e-14" stroke-linecap="round" />
</g>
		<g transform="matrix(0.22825986109613516 0 0 0.22825986109613516 32.3104559538053 63.217007519483225)"  >
<linearGradient id="SVGID_170_476073" gradientUnits="userSpaceOnUse" gradientTransform="matrix(1 0 0 1 -631.0552543389081 0)"  x1="0" y1="204.62253295859193" x2="718.6433105440948" y2="204.62253295859193">
<stop offset="0%" style="stop-color:rgb(132,60,188);stop-opacity: 1"/>
<stop offset="25%" style="stop-color:rgb(140,74,194);stop-opacity: 1"/>
<stop offset="50%" style="stop-color:rgb(148,86,198);stop-opacity: 1"/>
<stop offset="75%" style="stop-color:rgb(154,96,202);stop-opacity: 1"/>
<stop offset="100%" style="stop-color:rgb(160,106,204);stop-opacity: 1"/>
</linearGradient>
<path style="stroke: none; stroke-width: 1; stroke-dasharray: none; stroke-linecap: butt; stroke-dashoffset: 0; stroke-linejoin: miter; stroke-miterlimit: 4; fill: url(#SVGID_170_476073); fill-rule: nonzero; opacity: 1;"  paint-order="stroke"  transform=" translate(271.7335990668607, -204.62253295859193)" d="M 0 0 L 3 1 C 6.5600000000000005 8.02 10.1 15.06 13.47 22.17 C 19.511896137589908 34.86546480525531 25.688913537047995 47.496181980940946 32.000000000000426 60.060000000000215 C 37.88804972479056 71.81932839314034 43.7880527737011 83.57266780017598 49.69999999999709 95.31999999999113 L 50.25 96.41999999999999 C 55 105.91999999999999 59.71 115.43999999999998 64.28999999999999 125.01999999999998 L 64.92999999999999 126.36999999999998 Q 68.30999999999999 133.45 71.55999999999999 140.57999999999998 L 72.14999999999999 141.85999999999999 C 76.10533177494918 150.43559924158936 79.31712490576598 159.3349427082276 81.74999999999996 168.45999999999992 C 82.65800380718318 172.0177610567241 83.50147554918219 175.5916808489097 84.27999999999996 179.17999999999995 C 85.7185385469411 185.3648834764677 86.6284839620376 191.6609028559222 87 198 C 87.7 212.52 88.08 227.42000000000002 86.34 241.88 C 85.54076012910402 247.64348176934905 84.42574943829426 253.35874614858963 83.00000000000003 259 L 82.63 260.5 C 80.02 271.1 76.92999999999999 281.51 72.50999999999999 291.5 C 71.35642719545821 294.0337304439943 70.16630296312277 296.55065984291093 68.94 299.05 Q 67.64999999999999 301.72 66.47 304.45 C 62.76 312.61 57.94 319.99 52.89 327.38 C 47.11470978811286 335.7933790157473 40.71322877722507 343.75929507263794 33.74000000000002 351.21 L 31.6 353.51 C 25.750720957204067 359.76078560906114 19.37012764388625 365.4922781867819 12.530000000000008 370.64 L 8.88 373.34 L 6.350000000000001 375.23999999999995 C 0.16226754652978048 379.8120082175004 -6.404973709912031 383.8466964270108 -13.280000000000001 387.29999999999995 C -23.129999999999995 392.28 -33.11 397.11999999999995 -43.62 400.49999999999994 C -54.8666357747793 403.89367587157625 -66.36178075579906 406.4013427522525 -78 408 C -86.27 408.84 -94.62 408.73 -102.93 408.7 Q -107.72000000000001 408.71 -112.51 408.75 Q -120.78 408.8 -129.05 408.81 L -146.45000000000002 408.84 L -147.55 408.84 L -152 408.86999999999995 Q -173.53 408.9599999999999 -195.04 408.96999999999997 L -230.51999999999998 409.04999999999995 C -252.19661115736716 409.1217087646333 -273.87328869449937 409.1717087897089 -295.5500000000005 409.2000000000014 L -296.69999999999993 409.19999999999993 C -307.4766275989273 409.2356073423704 -318.25331728440557 409.2489407041835 -329.0300000000005 409.2399999999999 C -342.0999999999999 409.28 -355.0899999999999 409.09999999999997 -368.12999999999994 408.09 L -369.7199999999999 407.96999999999997 C -385.2899999999999 406.74999999999994 -400.38999999999993 403.59999999999997 -415.4999999999999 399.74999999999994 C -431.5959692631281 395.55239774348115 -447.2980117946002 389.96818530260606 -462.42999999999995 383.05999999999995 C -478.6299999999999 375.60999999999996 -494.32999999999987 367.15999999999997 -508.9999999999999 356.99999999999994 C -526.0999999999999 344.93999999999994 -542.0399999999998 330.9699999999999 -556.8199999999999 316.17999999999995 C -564.02 308.87999999999994 -570.4399999999999 300.94999999999993 -576.6299999999999 292.78999999999996 L -579.3399999999999 289.27 C -587.9599999999999 278.19 -595.3399999999999 266.35999999999996 -601.9999999999999 253.99999999999997 C -608.6899999999999 241.33999999999997 -614.7599999999999 228.24999999999997 -619.1799999999998 214.60999999999996 C -623.863776652212 200.17236830112313 -627.3784473338897 185.38132317737407 -629.6899999999998 170.38000000000002 C -630.7815791301331 163.64466234402207 -631.220281289091 156.8196623443579 -631 150.00000000000006 L -629 150 L -628.58 150.82 C -623.58 160.42 -617.83 169.39999999999998 -611.2800000000001 178.01999999999998 C -602.3716226768015 189.49443463649843 -592.4990433549863 200.18666219072475 -581.7700000000001 209.98000000000002 C -572.2600000000001 218.60999999999999 -561.7700000000001 226.10999999999999 -550.94 233 C -538.36 240.91 -525.2700000000001 248.08 -511.5400000000001 253.77 C -498.0400000000001 259.25 -484.24000000000007 263.88 -470.00000000000006 267 C -461.9565131865258 268.6864407628654 -453.8545245386328 270.08068994146527 -445.71 271.17999999999995 C -432.01000000000005 273.11 -418.21000000000004 273.6 -404.40000000000003 273.15000000000003 C -386.89000000000004 272.45000000000005 -369.68000000000006 269.48 -352.58000000000004 265.8 C -350.74454703346055 265.4080857618586 -348.92049115052237 264.9645767446177 -347.10999999999996 264.47 Q -346.06 264.21000000000004 -345 264 C -343.6683598918003 263.91726300450426 -342.3341108636171 263.8839067787997 -341.00000000000006 263.9 L -339.84 263.9 L -337.38 263.92999999999995 L -333.42 263.94999999999993 Q -328.47 263.9699999999999 -323.54 264.00999999999993 C -289.90000000000003 264.25999999999993 -289.90000000000003 264.25999999999993 -274 261.80999999999995 L -272.74 261.61999999999995 C -235.11441868510374 255.8954948041927 -198.77217729138988 243.6663644134217 -165.33999999999997 225.48000000000008 C -162.18980328598386 223.71690153395517 -159.07582484163493 221.8898563653222 -155.99999999999997 220 L -154.96 219.37 C -138.0902345589014 209.16622828723717 -122.19640133408073 197.42996474759497 -107.48000000000008 184.31000000000003 L -103.44000000000001 180.78 C -93.86000000000001 172.41 -84.32000000000001 163.41 -76.31000000000002 153.5 L -73.14000000000001 149.44 Q -71.29000000000002 147.10999999999999 -69.35000000000001 144.84 C -55.62394116039921 128.2469167832321 -43.769000837530115 110.19118872147057 -33.99999999999993 90.99999999999991 L -32.92 88.94 C -24.508089650235462 72.93316746246717 -17.50823519268118 56.22318985203404 -12.000000000000043 39.000000000000114 C -9.18 29.869999999999997 -6.6 20.67 -4 11.469999999999999 L -2.15 4.839999999999999 L -1.3699999999999999 2.019999999999999 L -1 1 z" stroke-linecap="round" />
</g>
		<g transform="matrix(0.22825986109613516 0 0 0.22825986109613516 -9.750167127877809 20.960963860590354)"  >
<path style="stroke: none; stroke-width: 1; stroke-dasharray: none; stroke-linecap: butt; stroke-dashoffset: 0; stroke-linejoin: miter; stroke-miterlimit: 4; fill: rgb(245,246,250); fill-rule: nonzero; opacity: 1;"  paint-order="stroke"  transform=" translate(-980.9999999999998, -1114.5)" d="M 957 1019 L 1004 1019 C 1009.3251058303536 1030.1213544496575 1014.4889798962033 1041.3191936925168 1019.49 1052.59 C 1025.5832959890295 1066.4362359465094 1031.8169502991027 1080.2202790332217 1038.1899999999998 1093.9399999999991 L 1042.75 1103.7899999999997 L 1043.31 1104.9899999999998 Q 1049.37 1118.12 1055.24 1131.3499999999997 Q 1060.8700000000001 1143.9499999999996 1066.6 1156.5099999999998 C 1072.7079130905913 1169.8963458854598 1078.7413397079476 1183.3165533779893 1084.6999999999998 1196.7700000000007 L 1085.33 1198.1599999999999 L 1087 1201.9999999999998 L 1087.59 1203.3299999999997 L 1088.6399999999999 1205.7999999999997 L 1088.9999999999998 1206.9999999999998 L 1088.9999999999998 1209.9999999999998 L 1041.9999999999998 1209.9999999999998 C 1039.0570671420314 1204.2657897432753 1036.3710706606994 1198.4033104666285 1033.9499999999998 1192.4299999999998 L 1031.3099999999997 1186.06 L 1028.2099999999998 1178.6 L 1026.9899999999998 1175.6399999999999 L 1026.2399999999998 1173.84 L 1025.5899999999997 1172.24 L 1024.9999999999998 1171 L 1023.9999999999998 1170 L 934.9999999999998 1169 L 931.9999999999998 1179 Q 930.6199999999998 1182.77 929.1199999999998 1186.5 L 928.3299999999998 1188.47 L 926.6999999999998 1192.52 L 924.6199999999998 1197.7 L 922.9999999999998 1201.73 L 922.2399999999998 1203.64 L 921.1699999999997 1206.2900000000002 L 920.5599999999997 1207.8100000000002 L 919.9999999999998 1209.0000000000002 L 918.9999999999998 1210.0000000000002 L 872.9999999999998 1210.0000000000002 C 873.9999999999998 1205.0000000000002 873.9999999999998 1205.0000000000002 874.4999999999998 1203.5000000000002 L 875.0499999999997 1202.2500000000002 L 875.6899999999997 1200.7800000000002 L 876.3799999999998 1199.2100000000003 L 877.1199999999998 1197.5100000000002 L 880.8599999999998 1188.9700000000003 C 886.0389712659933 1177.1389493254862 891.2656805180038 1165.3288531010771 896.5399999999992 1153.5400000000013 Q 903.0599999999997 1138.9400000000003 909.3799999999998 1124.2500000000002 C 916.3099999999997 1108.1500000000003 923.5299999999997 1092.1700000000003 930.7499999999998 1076.1900000000003 C 934.7285447123943 1067.3816744030134 938.688553476382 1058.5649882239334 942.629999999999 1049.7400000000023 L 949.0899999999998 1035.3200000000002 L 954.3899999999998 1023.4500000000002 L 954.8499999999998 1022.4200000000002 C 955.2196254207729 1021.6068903423057 955.6030138796356 1020.8001076723515 956 1020 z" stroke-linecap="round" />
</g>
		<g transform="matrix(0.22825986109613516 0 0 0.22825986109613516 24.816364937215447 20.96096386059033)"  >
<path style="stroke: none; stroke-width: 1; stroke-dasharray: none; stroke-linecap: butt; stroke-dashoffset: 0; stroke-linejoin: miter; stroke-miterlimit: 4; fill: rgb(244,245,249); fill-rule: nonzero; opacity: 1;"  paint-order="stroke"  transform=" translate(-1132.435, -1114.5)" d="M 1109 1019 L 1155 1019 C 1156 1024 1156 1024 1156.12 1025.8 L 1156.12 1047.02 L 1156.11 1058.79 L 1156.09 1075.81 C 1156.095537321323 1093.9500052382095 1156.085537317656 1112.090011892235 1156.060000000001 1130.2299999999932 L 1156.06 1131.9 L 1156.05 1140.2 L 1156 1209 L 1155 1210 L 1111 1210 L 1109 1205 C 1108.75 1203.19 1108.75 1203.19 1108.75 1201.48 L 1108.75 1195.02 L 1108.77 1188.69 L 1108.77 1181.8600000000001 Q 1108.77 1175.93 1108.79 1170.0300000000002 Q 1108.81 1161.4800000000002 1108.81 1152.9200000000003 Q 1108.81 1139.0400000000002 1108.85 1125.1500000000003 L 1108.8899999999999 1098.1900000000003 L 1108.8899999999999 1088.1700000000003 z" stroke-linecap="round" />
</g>
		<g transform="matrix(0.22825986109613516 0 0 0.22825986109613516 -9.97842698897392 17.30880608305219)"  >
<linearGradient id="SVGID_171_476074" gradientUnits="userSpaceOnUse" gradientTransform="matrix(1 0 0 1 -28 0)"  x1="0" y1="35.5" x2="58" y2="35.5">
<stop offset="0%" style="stop-color:rgb(104,36,158);stop-opacity: 1"/>
<stop offset="50%" style="stop-color:rgb(112,46,156);stop-opacity: 1"/>
<stop offset="100%" style="stop-color:rgb(122,56,170);stop-opacity: 1"/>
</linearGradient>
<path style="stroke: none; stroke-width: 1; stroke-dasharray: none; stroke-linecap: butt; stroke-dashoffset: 0; stroke-linejoin: miter; stroke-miterlimit: 4; fill: url(#SVGID_171_476074); fill-rule: nonzero; opacity: 1;"  paint-order="stroke"  transform=" translate(-1, -35.5)" d="M 0 0 L 2 0 C 9.284214240676441 16.684198633874793 16.351476665859295 33.46227966498134 23.199999999999818 50.329999999999814 L 26.48 58.37 L 27.7 61.37 L 28.4 63.07 C 29.2 65.64 29.56 68.34 30 71 L -28 71 C -27 66 -27 66 -26.17 63.65 L -25.17 61.199999999999996 Q -24.87 60.529999999999994 -24.6 59.839999999999996 L -21.48 52.239999999999995 L -18.07 43.94 L -14.67 35.67 L -4.789999999999999 11.630000000000003 z" stroke-linecap="round" />
</g>
</g>
</g>
<g transform="matrix(1.9211538461538462 0 0 1.9211538461538462 639.2631873967429 467.7316626027156)" id="tagline-e01fa0f5-d838-4c82-8339-95f5fd752189-logo"  >
<g style=""  paint-order="stroke"   >
		<g transform="matrix(1 0 0 1 0 0)" id="tagline-e01fa0f5-d838-4c82-8339-95f5fd752189-logo-path-0"  >
<path style="stroke: none; stroke-width: 0; stroke-dasharray: none; stroke-linecap: butt; stroke-dashoffset: 0; stroke-linejoin: miter; stroke-miterlimit: 4; fill: rgb(156,92,206); fill-rule: nonzero; opacity: 1;"  paint-order="stroke"  transform=" translate(-21.47, 13.3)" d="M 22.42 0 L 28.88 0 L 18.81 -26.6 L 11.97 -26.6 L 1.9 0 L 8.36 0 L 10.22 -4.94 L 20.56 -4.94 L 22.42 0 Z M 12.24 -10.26 L 15.39 -18.58 L 18.54 -10.26 L 12.24 -10.26 Z M 34.58 0 L 41.04 0 L 41.04 -26.6 L 34.58 -26.6 L 34.58 0 Z" stroke-linecap="round" />
</g>
</g>
</g>
</svg>